<svg width="100%" height="100%" viewBox="0 0 52 84" version="1.1" xmlns="http://www.w3.org/2000/svg" xmlns:xlink="http://www.w3.org/1999/xlink" xml:space="preserve" style="fill:var(--primary-color);fill-rule:evenodd;clip-rule:evenodd;stroke-linejoin:round;stroke-miterlimit:2;"><g transform="matrix(7.4897,0,0,7.4897,-48.7657,-55.4951)"><path d="M11.153,8.612L10.556,8.006L11.153,7.41L11.749,8.006L11.153,8.612ZM12.831,8.612L12.234,8.006L12.831,7.41L13.428,8.006L12.831,8.612ZM11.395,8.855L11.992,8.258L12.589,8.855L11.992,9.451L11.395,8.855ZM11.153,10.291L10.556,9.694L11.153,9.097L11.749,9.694L11.153,10.291ZM12.831,9.097L13.428,9.694L12.831,10.291L12.234,9.694L12.831,9.097ZM11.572,12.631L8.216,12.631L8.216,11.792L9.894,11.792L9.894,10.113L10.733,10.113L10.733,11.792L11.572,11.792L11.572,12.631ZM7.796,13.647L7.199,13.051L7.796,12.454L8.393,13.051L7.796,13.647ZM11.992,13.647L11.395,13.051L11.992,12.454L12.589,13.051L11.992,13.647ZM7.376,16.827L6.537,16.827L6.537,13.47L7.376,13.47L7.376,16.827ZM12.411,13.47L13.251,13.47L13.251,16.827L12.411,16.827L12.411,13.47ZM9.055,14.309L9.055,15.988L8.216,15.988L8.216,14.309L9.055,14.309ZM9.474,17.004L8.878,16.407L9.474,15.81L10.071,16.407L9.474,17.004ZM8.393,17.246L7.796,17.843L7.199,17.246L7.796,16.65L8.393,17.246ZM11.992,16.65L12.589,17.246L11.992,17.843L11.395,17.246L11.992,16.65ZM8.216,17.666L11.572,17.666L11.572,18.505L8.216,18.505L8.216,17.666Z"/></g></svg>
