<svg width="100%" height="100%" viewBox="0 0 52 53" version="1.1" xmlns="http://www.w3.org/2000/svg" xmlns:xlink="http://www.w3.org/1999/xlink" xml:space="preserve" style="fill:var(--primary-color);fill-rule:evenodd;clip-rule:evenodd;stroke-linejoin:round;stroke-miterlimit:2;"><g transform="matrix(6.18526,0,0,6.18526,-8.34339,-1.44052e-05)"><path d="M7.223,0.839L3.866,0.839L3.866,0L7.223,0L7.223,0.839ZM3.447,1.855L2.85,1.259L3.447,0.662L4.044,1.259L3.447,1.855ZM7.046,1.259L7.643,0.662L8.239,1.259L7.643,1.855L7.046,1.259ZM2.608,2.695L2.011,2.098L2.608,1.501L3.204,2.098L2.608,2.695ZM7.885,2.098L8.482,1.501L9.079,2.098L8.482,2.695L7.885,2.098ZM3.204,7.133L2.608,7.73L2.188,7.31L2.188,8.392L1.349,8.392L1.349,2.517L2.188,2.517L2.188,6.956L2.608,6.536L3.204,7.133ZM9.741,2.517L9.741,8.392L8.901,8.392L8.901,7.31L8.482,7.73L7.885,7.133L8.482,6.536L8.901,6.956L8.901,2.517L9.741,2.517ZM4.883,3.776L4.286,4.373L3.689,3.776L4.286,3.179L4.883,3.776ZM7.4,3.776L6.803,4.373L6.207,3.776L6.803,3.179L7.4,3.776ZM3.866,6.713L4.706,6.713L4.706,7.552L3.866,7.552L3.866,6.713ZM6.384,6.713L7.223,6.713L7.223,7.552L6.384,7.552L6.384,6.713ZM3.447,7.375L4.044,7.972L3.447,8.569L2.85,7.972L3.447,7.375ZM5.964,7.375L6.561,7.972L5.964,8.569L5.545,8.149L5.125,8.569L4.528,7.972L5.125,7.375L5.545,7.795L5.964,7.375ZM7.643,7.375L8.239,7.972L7.643,8.569L7.046,7.972L7.643,7.375Z"/></g></svg>
