<svg width="100%" height="100%" viewBox="0 0 114 128" version="1.1" xmlns="http://www.w3.org/2000/svg" xmlns:xlink="http://www.w3.org/1999/xlink" xml:space="preserve" style="fill-rule:evenodd;clip-rule:evenodd;stroke-linejoin:round;stroke-miterlimit:2;"><g transform="matrix(1.05457,0,0,1.05859,-10.1541,-3.61894)"><path d="M28.38,112.62L22.59,124.26C22.59,124.26 11.39,124.51 10.75,124.09C10.11,123.67 2.77,77.84 36.09,41.11C71.33,2.24 115.61,2.52 116.67,3.8C117.73,5.07 117.47,20.61 117.47,20.61L28.38,112.62Z" style="fill:rgb(255,81,23);fill-rule:nonzero;"/><path d="M70.78,28.21C48.9,40.58 32.38,59.3 24.73,88.59C21.09,102.52 22.46,124.24 22.46,124.24L35.38,124.24L73.81,67.82L117.47,26.9L117.47,14.94C117.47,14.94 91.35,16.57 70.78,28.21Z" style="fill:rgb(255,142,0);fill-rule:nonzero;"/><path d="M44.02,74.92C33.47,95.24 35.36,124.24 35.36,124.24L47.97,124.23L91.04,67.01L117.48,39.82L117.46,26.91C117.46,26.91 102.39,26.77 78.93,38.13C60.09,47.24 49.76,63.87 44.02,74.92Z" style="fill:rgb(249,216,30);fill-rule:nonzero;"/><path d="M65.47,64.73C43.6,92.06 47.74,124.23 47.74,124.23L61.77,124.23L85.73,80.76L117.48,54.43L117.47,39.69C117.47,39.69 85.01,40.3 65.47,64.73Z" style="fill:rgb(151,204,55);fill-rule:nonzero;"/><path d="M76.93,70.88C55.11,91.83 59.96,124.23 59.96,124.23L71.22,124.23L88,82.17L117.48,66.74L117.47,52.19C117.47,52.19 98.18,50.49 76.93,70.88Z" style="fill:rgb(0,192,233);fill-rule:nonzero;"/><path d="M117.03,74.72C117.7,73.67 117.48,62.72 117.48,62.72C117.48,62.72 99.23,62.39 83.85,79.72C68.5,97.02 70.71,124.23 70.71,124.23C70.71,124.23 81.23,124.55 81.66,123.7C82.52,122 78.75,101.97 91.3,87.84C104.3,73.21 116.66,75.28 117.03,74.72Z" style="fill:rgb(129,119,250);fill-rule:nonzero;"/></g></svg>