<svg width="100%" height="100%" viewBox="0 0 75 70" version="1.1" xmlns="http://www.w3.org/2000/svg" xmlns:xlink="http://www.w3.org/1999/xlink" xml:space="preserve" style="fill:var(--primary-color);fill-rule:evenodd;clip-rule:evenodd;stroke-linejoin:round;stroke-miterlimit:2;"><g transform="matrix(11.1719,0,0,11.1719,-493.227,-516.291)"><path d="M48.522,46.818L47.925,46.221L47.328,46.818L47.925,47.414L48.522,46.818ZM48.764,48.254L49.361,47.657L48.764,47.06L48.168,47.657L48.764,48.254ZM50.862,48.916L49.781,48.916L50.2,48.496L49.603,47.899L49.007,48.496L49.426,48.916L44.149,48.916L44.149,49.755L49.426,49.755L49.007,50.174L49.603,50.771L50.2,50.174L49.781,49.755L50.862,49.755L50.862,48.916ZM48.168,51.013L48.764,51.61L49.361,51.013L48.764,50.417L48.168,51.013ZM47.328,51.853L47.925,52.449L48.522,51.853L47.925,51.256L47.328,51.853Z"/></g></svg>
