<svg width="100%" height="100%" viewBox="0 0 75 69" version="1.1" xmlns="http://www.w3.org/2000/svg" xmlns:xlink="http://www.w3.org/1999/xlink" xml:space="preserve" style="fill:var(--primary-color);fill-rule:evenodd;clip-rule:evenodd;stroke-linejoin:round;stroke-miterlimit:2;"><g transform="matrix(8.125,0,0,8.125,-50.1136,-38.1115)"><path d="M8.685,5.537L8.685,4.698L12.881,4.698L12.881,5.537L8.685,5.537ZM8.266,6.554L7.669,5.957L8.266,5.36L8.862,5.957L8.266,6.554ZM12.704,5.957L13.301,5.36L13.897,5.957L13.301,6.554L12.704,5.957ZM7.427,7.393L6.83,6.796L7.427,6.199L8.023,6.796L7.427,7.393ZM13.543,6.796L14.14,6.199L14.737,6.796L14.14,7.393L13.543,6.796ZM7.007,9.733L6.168,9.733L6.168,7.216L7.007,7.216L7.007,9.733ZM15.399,7.216L15.399,9.733L14.559,9.733L14.559,7.216L15.399,7.216ZM9.105,7.878L9.702,8.474L9.105,9.071L8.508,8.474L9.105,7.878ZM12.462,7.878L13.058,8.474L12.462,9.071L11.865,8.474L12.462,7.878ZM10.364,8.894L11.203,8.894L11.203,10.572L10.364,10.572L10.364,8.894ZM8.023,10.153L7.427,10.749L6.83,10.153L7.427,9.556L8.023,10.153ZM14.14,9.556L14.737,10.153L14.14,10.749L13.543,10.153L14.14,9.556ZM12.881,10.572L13.72,10.572L13.72,13.09L7.846,13.09L7.846,10.572L8.685,10.572L8.685,12.251L9.524,12.251L9.524,11.411L10.364,11.411L10.364,12.251L11.203,12.251L11.203,11.411L12.042,11.411L12.042,12.251L12.881,12.251L12.881,10.572Z"/></g></svg>
