<svg width="100%" height="100%" viewBox="0 0 75 75" version="1.1" xmlns="http://www.w3.org/2000/svg" xmlns:xlink="http://www.w3.org/1999/xlink" xml:space="preserve" style="fill:var(--primary-color);fill-rule:evenodd;clip-rule:evenodd;stroke-linejoin:round;stroke-miterlimit:2;"><g transform="matrix(0.044991,0,0,0.044991,0,0)"><path d="M500,166.667L500,0L1166.67,0L1166.67,166.667L500,166.667ZM416.667,368.519L298.148,250L416.667,131.481L535.185,250L416.667,368.519ZM1131.48,250L1250,131.481L1368.52,250L1250,368.519L1131.48,250ZM250,535.185L131.481,416.667L250,298.148L368.519,416.667L250,535.185ZM1298.15,416.667L1416.67,298.148L1535.19,416.667L1416.67,535.185L1298.15,416.667ZM166.67,1166.67L0.003,1166.67L0.003,500L166.67,500L166.67,1166.67ZM666.67,666.667L500.003,666.667L500.003,500L666.67,500L666.67,666.667ZM1166.67,666.667L1000,666.667L1000,500L1166.67,500L1166.67,666.667ZM1666.67,500L1666.67,1166.67L1500,1166.67L1500,500L1666.67,500ZM500,833.333L500,1000L333.333,1000L333.333,833.333L500,833.333ZM1333.33,1000L1166.67,1000L1166.67,833.333L1333.33,833.333L1333.33,1000ZM583.333,1201.85L464.815,1083.33L583.333,964.815L701.852,1083.33L583.333,1201.85ZM1083.33,1201.85L964.815,1083.33L1083.33,964.815L1201.85,1083.33L1083.33,1201.85ZM368.519,1250L250,1368.52L131.481,1250L250,1131.48L368.519,1250ZM1416.67,1131.48L1535.19,1250L1416.67,1368.52L1298.15,1250L1416.67,1131.48ZM666.669,1333.33L666.669,1166.67L1000,1166.67L1000,1333.33L666.669,1333.33ZM535.187,1416.67L416.669,1535.18L298.15,1416.67L416.669,1298.15L535.187,1416.67ZM1250,1298.15L1368.52,1416.67L1250,1535.18L1131.48,1416.67L1250,1298.15ZM1166.67,1500L1166.67,1666.67L500.002,1666.67L500.002,1500L1166.67,1500Z"/></g></svg>